<svg width="38" height="38" fill="none" xmlns="http://www.w3.org/2000/svg"><path d="M13.085 0c-4.87 0-8.83 3.96-8.83 8.83 0 4.777 3.737 8.644 8.607 8.811.149-.018.298-.018.41 0h.129c4.76-.167 8.496-4.034 8.514-8.811 0-4.87-3.96-8.83-8.83-8.83ZM22.53 22.584c-5.186-3.458-13.644-3.458-18.868 0C1.302 24.164 0 26.302 0 28.588c0 2.287 1.301 4.406 3.644 5.968 2.602 1.747 6.022 2.62 9.443 2.62 3.42 0 6.84-.873 9.443-2.62 2.342-1.58 3.644-3.7 3.644-6.005-.019-2.286-1.302-4.405-3.644-5.967ZM33.514 9.923c.297 3.607-2.268 6.767-5.819 7.194h-.093c-.111 0-.223 0-.316.037-1.803.093-3.457-.483-4.703-1.543 1.915-1.71 3.012-4.275 2.789-7.063a8.628 8.628 0 0 0-1.432-4.053 6.644 6.644 0 0 1 2.361-.65c3.644-.316 6.897 2.398 7.213 6.078Z" fill="#fff"/><path d="M37.23 27.123c-.149 1.803-1.302 3.364-3.235 4.424-1.859 1.022-4.201 1.506-6.525 1.45 1.339-1.208 2.12-2.714 2.268-4.313.186-2.305-.91-4.517-3.104-6.283-1.246-.985-2.696-1.766-4.276-2.342 4.108-1.19 9.276-.39 12.455 2.175 1.71 1.375 2.584 3.104 2.417 4.889Z" fill="#fff"/></svg>