<svg width="30" height="41" viewBox="0 0 30 41" fill="none" xmlns="http://www.w3.org/2000/svg">
<path d="M14.8665 18.746C14.6777 18.7271 14.4511 18.7271 14.2434 18.746C9.75008 18.595 6.18188 14.9135 6.18188 10.3824C6.18188 5.75699 9.92 2 14.5644 2C19.1898 2 22.9468 5.75699 22.9468 10.3824C22.9279 14.9135 19.3597 18.595 14.8665 18.746Z" stroke="white" stroke-width="3.1" stroke-linecap="round" stroke-linejoin="round"/>
<path d="M5.4266 25.7125C0.857799 28.7709 0.857799 33.7551 5.4266 36.7946C10.6184 40.2685 19.1331 40.2685 24.3249 36.7946C28.8937 33.7362 28.8937 28.752 24.3249 25.7125C19.152 22.2575 10.6373 22.2575 5.4266 25.7125Z" stroke="white" stroke-width="3.1" stroke-linecap="round" stroke-linejoin="round"/>
</svg>
